<?xml version="1.0" encoding="UTF-8"?>
<svg xmlns="http://www.w3.org/2000/svg" xmlns:xlink="http://www.w3.org/1999/xlink" width="144px" height="144px" viewBox="0 0 144 144" version="1.1">
<g id="surface40500">
<path style=" stroke:none;fill-rule:nonzero;fill:rgb(21.568627%,27.843137%,30.980392%);fill-opacity:1;" d="M 81 114 C 27.300781 114 15.601562 99.601562 10.800781 93.300781 C 9.601562 92.101562 9 90.300781 9 88.5 C 9 84.300781 12.300781 81 16.5 81 C 19.199219 81 27 81 27 66.300781 L 27 64.5 C 27 37.199219 51.300781 15 81 15 C 110.699219 15 135 37.199219 135 64.5 C 135 91.800781 110.699219 114 81 114 Z M 81 114 "/>
<path style=" stroke:none;fill-rule:nonzero;fill:rgb(92.54902%,93.72549%,94.509804%);fill-opacity:1;" d="M 81 108 C 107.398438 108 129 88.5 129 64.5 C 129 40.5 107.398438 21 81 21 C 54.601562 21 33 40.5 33 64.5 L 33 66.300781 C 33 84.898438 21.601562 87 16.5 87 C 15.601562 87 15 87.601562 15 88.5 C 15 88.800781 15 89.101562 15.300781 89.398438 C 19.800781 95.101562 30 108 81 108 Z M 81 108 "/>
<path style=" stroke:none;fill-rule:nonzero;fill:rgb(21.568627%,27.843137%,30.980392%);fill-opacity:1;" d="M 96 48 C 92.6875 48 90 50.6875 90 54 C 90 57.3125 92.6875 60 96 60 C 99.3125 60 102 57.3125 102 54 C 102 50.6875 99.3125 48 96 48 Z M 66 48 C 62.6875 48 60 50.6875 60 54 C 60 57.3125 62.6875 60 66 60 C 69.3125 60 72 57.3125 72 54 C 72 50.6875 69.3125 48 66 48 Z M 81 87 C 66.601562 87 60.898438 76.5 60 71.101562 C 59.699219 69.601562 60.898438 67.800781 62.398438 67.5 C 63.898438 67.199219 65.699219 68.398438 66 69.898438 C 66 70.199219 68.101562 81 81 81 C 93.898438 81 96 70.5 96 69.898438 C 96.300781 68.398438 97.800781 67.199219 99.601562 67.5 C 101.101562 67.800781 102.300781 69.300781 102 70.800781 C 101.101562 76.5 95.398438 87 81 87 Z M 49.5 102 C 42.042969 102 36 108.042969 36 115.5 C 36 122.957031 42.042969 129 49.5 129 C 56.957031 129 63 122.957031 63 115.5 C 63 108.042969 56.957031 102 49.5 102 Z M 49.5 102 "/>
<path style=" stroke:none;fill-rule:nonzero;fill:rgb(37.647059%,49.019608%,54.509804%);fill-opacity:1;" d="M 49.5 111 C 47.015625 111 45 113.015625 45 115.5 C 45 117.984375 47.015625 120 49.5 120 C 51.984375 120 54 117.984375 54 115.5 C 54 113.015625 51.984375 111 49.5 111 Z M 49.5 111 "/>
<path style=" stroke:none;fill-rule:nonzero;fill:rgb(21.568627%,27.843137%,30.980392%);fill-opacity:1;" d="M 97.5 102 C 90.042969 102 84 108.042969 84 115.5 C 84 122.957031 90.042969 129 97.5 129 C 104.957031 129 111 122.957031 111 115.5 C 111 108.042969 104.957031 102 97.5 102 Z M 97.5 102 "/>
<path style=" stroke:none;fill-rule:nonzero;fill:rgb(37.647059%,49.019608%,54.509804%);fill-opacity:1;" d="M 97.5 111 C 95.015625 111 93 113.015625 93 115.5 C 93 117.984375 95.015625 120 97.5 120 C 99.984375 120 102 117.984375 102 115.5 C 102 113.015625 99.984375 111 97.5 111 Z M 97.5 111 "/>
</g>
</svg>
